<svg version="1.1" preserveAspectRatio="none" xmlns="http://www.w3.org/2000/svg" width="500" height="500" viewBox="0 0 500 500"><rect width="100%" height="100%" fill="#EFFFE0" fill-opacity="1"/><svg viewBox="43.0449 76.6639 376.2956 258.0441" width="333" height="228.3542122203927" x="83.5px" y="135.8229px" xmlns="http://www.w3.org/2000/svg" xmlns:xlink="http://www.w3.org/1999/xlink" preserveAspectRatio="none"><defs></defs><style>.companyName {fill:#313131;fill-opacity:1;}.icon1 {fill:#313131;fill-opacity:1;}.icon2 {fill:#C2EF7E;fill-opacity:1;}.icon3 {fill:#6B7D3B;fill-opacity:1;}.icon3-str {stroke:#6B7D3B;stroke-opacity:1;}</style><g opacity="1" transform="rotate(0 43.0449 274.708)">
<svg width="376.2956" height="60" x="43.0449" y="274.708" version="1.1" preserveAspectRatio="none" viewBox="1.8 -33.2 273.44 43.60000000000001">
  <g transform="matrix(1 0 0 1 0 0)" class="companyName"><path id="id-D6z1nYkh12" d="M30.80-24.44L30.80-6.36Q30.80-4.84 30.96-3.90Q31.12-2.96 31.58-2.46Q32.04-1.96 32.90-1.76Q33.76-1.56 35.16-1.52L35.16-1.52L35.16 0L22.20 0L22.20-1.52Q23.60-1.56 24.46-1.76Q25.32-1.96 25.80-2.44Q26.28-2.92 26.44-3.80Q26.60-4.68 26.60-6.08L26.60-6.08L26.60-14.76L10.40-14.76L10.40-6.36Q10.40-4.84 10.56-3.90Q10.72-2.96 11.18-2.46Q11.64-1.96 12.50-1.76Q13.36-1.56 14.76-1.52L14.76-1.52L14.76 0L1.80 0L1.80-1.52Q3.20-1.56 4.06-1.76Q4.92-1.96 5.40-2.44Q5.88-2.92 6.04-3.80Q6.20-4.68 6.20-6.08L6.20-6.08L6.20-24.72Q6.20-26.12 6.06-26.98Q5.92-27.84 5.50-28.34Q5.08-28.84 4.28-29.02Q3.48-29.20 2.20-29.28L2.20-29.28L2.20-30.80L14.36-30.80L14.36-29.28Q13.08-29.24 12.30-29.04Q11.52-28.84 11.10-28.32Q10.68-27.80 10.54-26.88Q10.40-25.96 10.40-24.44L10.40-24.44L10.40-16.76L26.60-16.76L26.60-24.72Q26.60-26.12 26.46-26.98Q26.32-27.84 25.90-28.34Q25.48-28.84 24.68-29.02Q23.88-29.20 22.60-29.28L22.60-29.28L22.60-30.80L34.76-30.80L34.76-29.28Q33.48-29.24 32.70-29.04Q31.92-28.84 31.50-28.32Q31.08-27.80 30.94-26.88Q30.80-25.96 30.80-24.44L30.80-24.44Z M55.64-4.84L56.88-3.72Q53.48 0.40 48.44 0.40L48.44 0.40Q46.08 0.40 44.16-0.38Q42.24-1.16 40.86-2.58Q39.48-4 38.72-5.98Q37.96-7.96 37.96-10.36L37.96-10.36Q37.96-12.80 38.76-14.88Q39.56-16.96 41.02-18.44Q42.48-19.92 44.50-20.76Q46.52-21.60 48.92-21.60L48.92-21.60Q52.80-21.60 54.92-19.50Q57.04-17.40 57.04-13.48L57.04-13.48Q57.04-12.92 56.82-12.80Q56.60-12.68 55.80-12.68L55.80-12.68L42.64-12.68Q42.56-12.36 42.52-11.90Q42.48-11.44 42.48-10.88L42.48-10.88Q42.48-8.80 42.98-7.10Q43.48-5.40 44.42-4.20Q45.36-3 46.66-2.34Q47.96-1.68 49.56-1.68L49.56-1.68Q51.24-1.68 52.68-2.42Q54.12-3.16 55.64-4.84L55.64-4.84ZM42.92-14.52L50.28-14.52Q51.08-14.52 51.56-14.56Q52.04-14.60 52.28-14.72Q52.52-14.84 52.60-15.06Q52.68-15.28 52.68-15.64L52.68-15.64Q52.68-17.48 51.50-18.58Q50.32-19.68 48.28-19.68L48.28-19.68Q43.96-19.68 42.92-14.52L42.92-14.52Z M72.88-8.68L72.88-11.84Q70.60-10.96 69.02-10.12Q67.44-9.28 66.48-8.44Q65.52-7.60 65.10-6.76Q64.68-5.92 64.68-5.04L64.68-5.04Q64.68-3.72 65.56-2.88Q66.44-2.04 67.88-2.04L67.88-2.04Q68.92-2.04 69.82-2.56Q70.72-3.08 71.40-3.98Q72.08-4.88 72.48-6.10Q72.88-7.32 72.88-8.68L72.88-8.68ZM67.12-11.04L72.88-13.56L72.88-15.20Q72.88-20.08 68.72-20.08L68.72-20.08Q68.04-20.08 67.56-19.96Q67.08-19.84 66.76-19.56Q66.44-19.28 66.18-18.76Q65.92-18.24 65.68-17.48L65.68-17.48Q65.24-16.32 64.82-15.94Q64.40-15.56 63.60-15.56L63.60-15.56Q61.60-15.56 61.60-17.56L61.60-17.56Q61.60-19.48 63.64-20.54Q65.68-21.60 69.44-21.60L69.44-21.60Q73.44-21.60 75.12-20.18Q76.80-18.76 76.80-15.36L76.80-15.36L76.80-6.40Q76.80-1.84 78.60-1.84L78.60-1.84Q79.16-1.84 79.68-1.98Q80.20-2.12 80.56-2.72L80.56-2.72L81.12-1.76Q80.64-0.84 79.36-0.22Q78.08 0.40 76.68 0.40L76.68 0.40Q74.92 0.40 74.06-0.72Q73.20-1.84 73.20-3.88L73.20-3.88L73-3.88Q71.96-1.92 70.12-0.78Q68.28 0.36 66.04 0.36L66.04 0.36Q63.52 0.36 62.08-0.92Q60.64-2.20 60.64-4.36L60.64-4.36Q60.64-5.32 60.98-6.20Q61.32-7.08 62.08-7.88Q62.84-8.68 64.08-9.46Q65.32-10.24 67.12-11.04L67.12-11.04Z M89.44-33.20L89.44-6.24Q89.44-4.72 89.56-3.80Q89.68-2.88 90.06-2.36Q90.44-1.84 91.14-1.64Q91.84-1.44 93-1.40L93-1.40L93 0L81.96 0L81.96-1.40Q83.16-1.44 83.88-1.66Q84.60-1.88 85.02-2.36Q85.44-2.84 85.58-3.70Q85.72-4.56 85.72-5.96L85.72-5.96L85.72-23.20Q85.72-25.36 85.66-26.82Q85.60-28.28 85.48-28.80L85.48-28.80Q85.28-29.72 84.54-30.04Q83.80-30.36 81.88-30.36L81.88-30.36L81.88-31.72L89.44-33.20Z M98.08-18.68L95.68-18.68L95.68-20.16Q97.80-21.40 99-22.64Q100.20-23.88 100.84-25.60L100.84-25.60L102-25.60L102-20.56L107.36-20.56L107.36-18.68L102-18.68L102-6.52Q102-5.12 102.14-4.16Q102.28-3.20 102.60-2.62Q102.92-2.04 103.44-1.80Q103.96-1.56 104.76-1.56L104.76-1.56Q105.76-1.56 106.46-1.98Q107.16-2.40 107.84-3.40L107.84-3.40L108.84-2.64Q108.28-1.16 106.90-0.38Q105.52 0.40 103.48 0.40L103.48 0.40Q100.84 0.40 99.46-0.86Q98.08-2.12 98.08-4.48L98.08-4.48L98.08-18.68Z M117.52-11.48L117.52-6.36Q117.52-4.72 117.60-3.76Q117.68-2.80 118.02-2.30Q118.36-1.80 119-1.64Q119.64-1.48 120.80-1.40L120.80-1.40L120.80 0L110.16 0L110.16-1.40Q111.32-1.48 112-1.64Q112.68-1.80 113.04-2.28Q113.40-2.76 113.50-3.66Q113.60-4.56 113.60-6.08L113.60-6.08L113.60-22.84Q113.60-25.20 113.54-26.60Q113.48-28 113.32-28.72L113.32-28.72Q113.24-29.20 113.06-29.50Q112.88-29.80 112.52-29.98Q112.16-30.16 111.56-30.24Q110.96-30.32 110.08-30.32L110.08-30.32L110.08-31.68L117.44-33.20L117.44-17.96L117.60-17.96Q118.20-18.76 119.10-19.42Q120-20.08 121.04-20.56Q122.08-21.04 123.22-21.32Q124.36-21.60 125.44-21.60L125.44-21.60Q127.28-21.60 128.82-20.96Q130.36-20.32 131.20-19.24L131.20-19.24Q131.88-18.32 132.20-16.82Q132.52-15.32 132.52-12.76L132.52-12.76L132.52-6.36Q132.52-4.72 132.60-3.78Q132.68-2.84 133.02-2.32Q133.36-1.80 134-1.64Q134.64-1.48 135.80-1.40L135.80-1.40L135.80 0L125.20 0L125.20-1.40Q126.32-1.44 127-1.62Q127.68-1.80 128.02-2.28Q128.36-2.76 128.46-3.66Q128.56-4.56 128.56-6.08L128.56-6.08L128.56-11.12Q128.56-15.60 127.52-17.50Q126.48-19.40 124.04-19.40L124.04-19.40Q122.16-19.40 120.62-18.44Q119.08-17.48 118.20-15.80L118.20-15.80Q118-15.36 117.86-14.98Q117.72-14.60 117.64-14.12Q117.56-13.64 117.54-13.02Q117.52-12.40 117.52-11.48L117.52-11.48Z M155.88-13.12L147.16 6.28Q145.32 10.40 141.44 10.40L141.44 10.40Q138.92 10.40 138.92 8.52L138.92 8.52Q138.92 7.52 139.62 7.06Q140.32 6.60 142.20 6.28L142.20 6.28Q143.04 6.16 143.64 5.94Q144.24 5.72 144.72 5.38Q145.20 5.04 145.58 4.52Q145.96 4 146.32 3.24L146.32 3.24L147.72 0.44L140.04-16.24Q139.52-17.36 139.14-18.02Q138.76-18.68 138.34-19.06Q137.92-19.44 137.40-19.58Q136.88-19.72 136.08-19.80L136.08-19.80L136.08-21.20L146.68-21.20L146.68-19.80Q144-19.80 144-18.48L144-18.48Q144-17.96 144.32-16.84Q144.64-15.72 145.12-14.56L145.12-14.56L149.52-3.92L149.72-3.92L153.36-12.92Q153.88-14.24 154.22-15.08Q154.56-15.92 154.74-16.46Q154.92-17 154.98-17.36Q155.04-17.72 155.04-18.04L155.04-18.04Q155.04-19.08 154.46-19.44Q153.88-19.80 152.24-19.80L152.24-19.80L152.24-21.20L161.04-21.20L161.04-19.80Q160.28-19.80 159.76-19.60Q159.24-19.40 158.70-18.70Q158.16-18 157.50-16.68Q156.84-15.36 155.88-13.12L155.88-13.12Z M182.16-14.52L182.16-6.36Q182.16-4.84 182.34-3.90Q182.52-2.96 183.12-2.46Q183.72-1.96 184.82-1.76Q185.92-1.56 187.72-1.52L187.72-1.52L187.72 0L173.56 0L173.56-1.52Q174.96-1.56 175.82-1.76Q176.68-1.96 177.16-2.44Q177.64-2.92 177.80-3.80Q177.96-4.68 177.96-6.08L177.96-6.08L177.96-24.72Q177.96-26.12 177.82-26.98Q177.68-27.84 177.26-28.34Q176.84-28.84 176.04-29.02Q175.24-29.20 173.96-29.28L173.96-29.28L173.96-30.80L197.08-30.80L197.52-23.16L196.12-23.16Q195.88-24.88 195.36-25.98Q194.84-27.08 193.90-27.72Q192.96-28.36 191.52-28.62Q190.08-28.88 187.92-28.88L187.92-28.88L182.84-28.88Q182.16-28.88 182.16-28.20L182.16-28.20L182.16-16.12Q184.08-16.12 185.46-16.34Q186.84-16.56 187.74-17.12Q188.64-17.68 189.12-18.64Q189.60-19.60 189.72-21.12L189.72-21.12L191.12-21.12L191.12-9.40L189.72-9.40Q189.52-10.92 189.08-11.92Q188.64-12.92 187.78-13.48Q186.92-14.04 185.56-14.28Q184.20-14.52 182.16-14.52L182.16-14.52Z M209.92-21.60L209.92-21.60Q212.20-21.60 214.24-20.78Q216.28-19.96 217.82-18.52Q219.36-17.08 220.26-15.10Q221.16-13.12 221.16-10.76L221.16-10.76Q221.16-8.32 220.26-6.28Q219.36-4.24 217.82-2.76Q216.28-1.28 214.24-0.44Q212.20 0.40 209.92 0.40L209.92 0.40Q207.68 0.40 205.66-0.42Q203.64-1.24 202.12-2.72Q200.60-4.20 199.72-6.26Q198.84-8.32 198.84-10.76L198.84-10.76Q198.84-13.12 199.72-15.12Q200.60-17.12 202.12-18.56Q203.64-20 205.66-20.80Q207.68-21.60 209.92-21.60ZM209.92-19.68L209.92-19.68Q208.44-19.68 207.22-19.04Q206.00-18.40 205.14-17.22Q204.28-16.04 203.82-14.38Q203.36-12.72 203.36-10.72L203.36-10.72Q203.36-8.64 203.82-6.96Q204.28-5.28 205.14-4.10Q206.00-2.92 207.20-2.28Q208.40-1.64 209.92-1.64L209.92-1.64Q211.44-1.64 212.68-2.28Q213.92-2.92 214.80-4.12Q215.68-5.32 216.16-7Q216.64-8.68 216.64-10.72L216.64-10.72Q216.64-12.72 216.16-14.36Q215.68-16 214.80-17.18Q213.92-18.36 212.68-19.02Q211.44-19.68 209.92-19.68Z M236.08-21.60L236.08-21.60Q238.36-21.60 240.40-20.78Q242.44-19.96 243.98-18.52Q245.52-17.08 246.42-15.10Q247.32-13.12 247.32-10.76L247.32-10.76Q247.32-8.32 246.42-6.28Q245.52-4.24 243.98-2.76Q242.44-1.28 240.40-0.44Q238.36 0.40 236.08 0.40L236.08 0.40Q233.84 0.40 231.82-0.42Q229.80-1.24 228.28-2.72Q226.76-4.20 225.88-6.26Q225-8.32 225-10.76L225-10.76Q225-13.12 225.88-15.12Q226.76-17.12 228.28-18.56Q229.80-20 231.82-20.80Q233.84-21.60 236.08-21.60ZM236.08-19.68L236.08-19.68Q234.60-19.68 233.38-19.04Q232.16-18.40 231.30-17.22Q230.44-16.04 229.98-14.38Q229.52-12.72 229.52-10.72L229.52-10.72Q229.52-8.64 229.98-6.96Q230.44-5.28 231.30-4.10Q232.16-2.92 233.36-2.28Q234.56-1.64 236.08-1.64L236.08-1.64Q237.60-1.64 238.84-2.28Q240.08-2.92 240.96-4.12Q241.84-5.32 242.32-7Q242.80-8.68 242.80-10.72L242.80-10.72Q242.80-12.72 242.32-14.36Q241.84-16 240.96-17.18Q240.08-18.36 238.84-19.02Q237.60-19.68 236.08-19.68Z M268.60 0.40L268.60-3.36L268.44-3.36Q267-1.32 265.38-0.46Q263.76 0.40 261.56 0.40L261.56 0.40Q259.28 0.40 257.38-0.42Q255.48-1.24 254.10-2.70Q252.72-4.16 251.94-6.20Q251.16-8.24 251.16-10.64L251.16-10.64Q251.16-13 251.94-15.02Q252.72-17.04 254.10-18.50Q255.48-19.96 257.40-20.78Q259.32-21.60 261.56-21.60L261.56-21.60Q263.48-21.60 264.98-20.96Q266.48-20.32 267.88-18.92L267.88-18.92L267.88-23Q267.88-25.28 267.82-26.80Q267.76-28.32 267.64-28.88L267.64-28.88Q267.44-29.76 266.52-30.12Q265.60-30.48 263.52-30.48L263.52-30.48L263.52-31.68L271.72-33.20L271.72-10.12Q271.72-7.36 271.76-5.58Q271.80-3.80 272-3.04L272-3.04Q272.12-2.56 272.30-2.24Q272.48-1.92 272.82-1.74Q273.16-1.56 273.74-1.48Q274.32-1.40 275.24-1.40L275.24-1.40L275.24-0.04L268.60 0.40ZM267.80-9.56L267.80-12.20Q267.80-14.28 267.58-15.36Q267.36-16.44 266.72-17.24L266.72-17.24Q265.80-18.44 264.38-19.06Q262.96-19.68 261.56-19.68L261.56-19.68Q258.68-19.68 257.18-17.30Q255.68-14.92 255.68-10.84L255.68-10.84Q255.68-8.72 256.06-7Q256.44-5.28 257.18-4.06Q257.92-2.84 259.02-2.18Q260.12-1.52 261.56-1.52L261.56-1.52Q262.28-1.52 263.02-1.68Q263.76-1.84 264.46-2.18Q265.16-2.52 265.76-2.98Q266.36-3.44 266.76-4.04L266.76-4.04Q267.32-4.92 267.56-6.16Q267.80-7.40 267.80-9.56L267.80-9.56Z"/></g>
</svg>
</g><g opacity="1" transform="rotate(0 155.9336 76.6639)">
<svg width="150.5182" height="158.0441" x="155.9336" y="76.6639" version="1.1" preserveAspectRatio="none" viewBox="20 16 160 168">
  <g transform="matrix(1 0 0 1 0 0)"><g><path d="M117.3 184c-27.8 0-50.5-22.4-50.5-50v-9.7c0-2.3 1.9-4.1 4.2-4.1 2.3 0 4.2 1.9 4.2 4.1v9.7c0 23 18.9 41.8 42.1 41.8 23.2 0 42.1-18.7 42.1-41.8v-31.1c0-2.3 1.9-4.1 4.2-4.1s4.2 1.9 4.2 4.1V134c0 27.6-22.6 50-50.5 50z" data-color="1" class="icon1"></path><path d="M71 125.9c-28.1 0-51-22.7-51-50.6V31.7c0-2.3 1.9-4.1 4.2-4.1h20.5c2.3 0 4.2 1.9 4.2 4.1s-1.9 4.1-4.2 4.1H28.3v39.4c0 23.3 19.2 42.3 42.7 42.3 2.3 0 4.2 1.9 4.2 4.1 0 2.5-1.9 4.3-4.2 4.3z" data-color="1" class="icon1"></path><path d="M47.6 47.5c-2.3 0-4.2-1.9-4.2-4.1V20.1c0-2.3 1.9-4.1 4.2-4.1s4.2 1.9 4.2 4.1v23.2c0 2.3-1.9 4.2-4.2 4.2z" data-color="2" class="icon2"></path><path d="M71 125.9c-2.3 0-4.2-1.9-4.2-4.1s1.9-4.1 4.2-4.1c23.5 0 42.7-19 42.7-42.3V35.9H97.4c-2.3 0-4.2-1.9-4.2-4.1s1.9-4.1 4.2-4.1h20.5c2.3 0 4.2 1.9 4.2 4.1v43.6c0 27.8-22.9 50.5-51.1 50.5z" data-color="1" class="icon1"></path><path d="M94.5 47.5c-2.3 0-4.2-1.9-4.2-4.1V20.1c0-2.3 1.9-4.1 4.2-4.1 2.3 0 4.2 1.9 4.2 4.1v23.2c-.1 2.3-1.9 4.2-4.2 4.2z" data-color="2" class="icon2"></path><path d="M70.1 103.8c-17.2 0-34.5-6.5-47.6-19.5-1.4-1.3-1.4-3.5 0-4.9 1.4-1.3 3.6-1.3 4.9 0 23.5 23.3 61.8 23.3 85.3 0 1.4-1.3 3.6-1.3 4.9 0 1.4 1.3 1.4 3.5 0 4.9-13.1 13-30.3 19.5-47.5 19.5z" data-color="1" class="icon1"></path><path d="M163.6 106.2c-9 0-16.4-7.3-16.4-16.2 0-8.9 7.3-16.2 16.4-16.2 9 0 16.4 7.3 16.4 16.2 0 8.9-7.3 16.2-16.4 16.2zm0-24.2c-4.4 0-8 3.6-8 7.9 0 4.4 3.6 7.9 8 7.9s8-3.6 8-7.9c.1-4.3-3.5-7.9-8-7.9z" data-color="2" class="icon2"></path></g></g>
</svg>
</g></svg></svg>